GIL12_free4_RRA_states
nRows=4
nColumns=47

# SIMM Motion File Header:
name GIL12_free4_RRA_states
datacolumns 47
datarows 4
otherdata 1
range 0.75067000000000050000 0.75217000000000045000
endheader
time	pelvis_tx	pelvis_ty	pelvis_tz	pelvis_tilt	pelvis_list	pelvis_rotation	hip_flexion_r	hip_adduction_r	hip_rotation_r	knee_angle_r	ankle_angle_r	subtalar_angle_r	mtp_angle_r	hip_flexion_l	hip_adduction_l	hip_rotation_l	knee_angle_l	ankle_angle_l	subtalar_angle_l	mtp_angle_l	lumbar_extension	lumbar_bending	lumbar_rotation	pelvis_tx_u	pelvis_ty_u	pelvis_tz_u	pelvis_tilt_u	pelvis_list_u	pelvis_rotation_u	hip_flexion_r_u	hip_adduction_r_u	hip_rotation_r_u	knee_angle_r_u	ankle_angle_r_u	subtalar_angle_r_u	mtp_angle_r_u	hip_flexion_l_u	hip_adduction_l_u	hip_rotation_l_u	knee_angle_l_u	ankle_angle_l_u	subtalar_angle_l_u	mtp_angle_l_u	lumbar_extension_u	lumbar_bending_u	lumbar_rotation_u
      0.75067000000000050000	      1.48286499304296490000	      0.69146581468548718000	     -0.22256790758929712000	      6.08676564053966730000	      2.25711918639508060000	     -2.02507251504347520000	     -3.17468396894033460000	     -0.66019608620435433000	     -2.54357582000348080000	    -15.14166962886986000000	     10.05848561525929200000	     -0.00000000000011194563	      0.00000000000013206875	     14.01285474099136500000	     -2.16681319973889770000	     -6.71236448732914500000	    -49.30631184984121500000	     -5.45094419657387430000	      0.00000000000022556749	     -0.00000000000103128554	    -23.77847110133653500000	     -0.80636779657945734000	      5.53451683672810720000	      0.95450534280079780000	     -0.01979287551923546500	      0.06056677980949203700	     10.72166079780400600000	     -6.50271811143654780000	      5.44275006132112620000	   -131.45343295980834000000	      3.91596379179816180000	    -25.94221593051298300000	     58.53707210461718100000	     38.56565596079293800000	     -0.00000000000080801040	      0.00000000000128915816	    131.38788942746049000000	      0.07402392059086750100	     89.60407670373894000000	    211.92412350847707000000	     70.93881280669118900000	      0.00000000000042087689	     -0.00000000000207402952	    -29.72307713778538100000	     -5.01375387938445630000	     27.29065369671103600000
      0.75117000000000045000	      1.48334223096566450000	      0.69145561488565421000	     -0.22253796304343676000	      6.09213756121822490000	      2.25383284300277120000	     -2.02233790316993020000	     -3.24042197353883350000	     -0.65820984587218045000	     -2.55653180297853530000	    -15.11243095668714900000	     10.07777035632686400000	     -0.00000000000011234642	      0.00000000000013270422	     14.07840186764912700000	     -2.16673657385949750000	     -6.66772477650383970000	    -49.19997665506120700000	     -5.41543377617780310000	      0.00000000000022577773	     -0.00000000000103232192	    -23.79335911543290300000	     -0.80873884767698401000	      5.54809706121432280000	      0.95444750274578050000	     -0.02100632894210704600	      0.05921119833644111100	     10.76577190193230700000	     -6.64238505096197420000	      5.49532837447673290000	   -131.49865921869346000000	      4.02879382883615290000	    -25.88069029664632100000	     58.41818028270731100000	     38.57338341624508600000	     -0.00000000000081991631	      0.00000000000129617006	    130.80018471149964000000	      0.23244482837898603000	     88.95159876118481200000	    213.41697716336878000000	     71.10066932337260000000	      0.00000000000041922527	     -0.00000000000206932869	    -29.82849561504000800000	     -4.47067833736160480000	     27.03084475120456500000
      0.75167000000000050000	      1.48381944170099560000	      0.69144480835118227000	     -0.22250869661327830000	      6.09753116207944320000	      2.25047706992582470000	     -2.01957754031832160000	     -3.30618270421020280000	     -0.65616749652784256000	     -2.56945550935397240000	    -15.08325088492670800000	     10.09705906186073700000	     -0.00000000000011275933	      0.00000000000013336450	     14.14365449928384600000	     -2.16658078947019210000	     -6.62341605898405560000	    -49.09289455763620000000	     -5.37984573455165460000	      0.00000000000022598745	     -0.00000000000103335615	    -23.80829911323131400000	     -0.81083869470146008000	      5.56154826835861190000	      0.95439659449258218000	     -0.02221981305834992400	      0.05785428464138349400	     10.80838078381111500000	     -6.78044032930276150000	      5.54578471583476060000	   -131.54434175229557000000	      4.14039886756753980000	    -25.81315911103024200000	     58.30267060236587200000	     38.58149016461913300000	     -0.00000000000081535595	      0.00000000000134670219	    130.20992219309937000000	      0.39065822908378400000	     88.28009898173122800000	    214.91171923398252000000	     71.24928179563917800000	      0.00000000000041782512	     -0.00000000000206561347	    -29.93101164529207000000	     -3.92892216880227660000	     26.77455741290043200000
      0.75217000000000045000	      1.48429662872379380000	      0.69143339506950330000	     -0.22248010895031928000	      6.10294568966243120000	      2.24705266493862640000	     -2.01679247052459590000	     -3.37196639202537840000	     -0.65406964740372808000	     -2.58234396726394260000	    -15.05412771435433900000	     10.11635189863065100000	     -0.00000000000011316861	      0.00000000000013405190	     14.20861136234965900000	     -2.16634596246909750000	     -6.57944783377394420000	    -48.98506460552369600000	     -5.34418674999795500000	      0.00000000000022619627	     -0.00000000000103438838	    -23.82328963846277100000	     -0.81266799494169351000	      5.57487220951379570000	      0.95435266812029762000	     -0.02343331421107575800	      0.05649622377738508500	     10.84947558950320500000	     -6.91692183070478440000	      5.59412823713232490000	   -131.59048457841575000000	      4.25080132176036330000	    -25.73965875358896200000	     58.19059135556380400000	     38.58990999556257900000	     -0.00000000000082407313	      0.00000000000139958246	    129.61709529925002000000	      0.54859035423294267000	     87.58966237539749500000	    216.40844142321328000000	     71.38436039447636000000	      0.00000000000041714135	     -0.00000000000206441955	    -30.03059586937951800000	     -3.38851738596597270000	     26.52181600546920100000
